<?xml version="1.0" standalone="no"?>
<!DOCTYPE svg PUBLIC "-//W3C//DTD SVG 20010904//EN"
 "http://www.w3.org/TR/2001/REC-SVG-20010904/DTD/svg10.dtd">
<svg version="1.0" xmlns="http://www.w3.org/2000/svg"
 width="260.000000pt" height="260.000000pt" viewBox="0 0 260.000000 260.000000"
 preserveAspectRatio="xMidYMid meet">
<metadata>
Created by potrace 1.11, written by Peter Selinger 2001-2013
</metadata>
<g transform="translate(0.000000,260.000000) scale(0.100000,-0.100000)"
fill="#000000" stroke="none">
<path d="M2190 2420 c0 -5 -8 -10 -18 -10 -10 0 -27 -7 -38 -15 -10 -8 -26
-15 -34 -15 -9 0 -32 -16 -53 -36 -20 -20 -37 -34 -37 -31 0 6 -43 -28 -75
-60 -12 -13 -28 -23 -35 -23 -7 0 -11 -3 -7 -6 8 -8 -25 -44 -40 -44 -6 0 -15
-5 -19 -12 -5 -7 -3 -8 7 -3 8 5 -4 -9 -26 -30 -22 -22 -43 -39 -47 -37 -5 1
-8 -3 -8 -9 0 -5 -5 -7 -12 -3 -7 4 -8 3 -4 -5 4 -6 0 -14 -8 -17 -9 -3 -13
-10 -10 -15 3 -5 -3 -9 -12 -9 -10 0 -15 -3 -12 -6 7 -7 -39 -54 -53 -54 -6 0
-7 -4 -4 -10 3 -5 -3 -15 -15 -22 -11 -7 -20 -16 -20 -20 0 -5 -24 -31 -52
-60 -29 -28 -52 -55 -51 -59 2 -4 -6 -11 -17 -14 -11 -4 -20 -12 -20 -18 0 -7
-20 -33 -43 -58 -56 -62 -109 -127 -124 -153 -7 -12 -12 -16 -13 -11 0 6 -10
-6 -21 -25 -12 -19 -26 -38 -31 -41 -5 -3 -26 -29 -46 -58 -20 -28 -81 -112
-134 -186 -54 -74 -98 -139 -98 -145 0 -5 -4 -10 -10 -10 -5 0 -10 -7 -10 -15
0 -8 -3 -15 -7 -15 -10 0 -47 -62 -45 -73 1 -4 -2 -7 -8 -7 -5 0 -10 -6 -10
-14 0 -8 -3 -16 -7 -18 -10 -4 -43 -52 -73 -106 -13 -23 -28 -42 -32 -42 -5 0
-7 -4 -4 -9 3 -5 0 -14 -8 -20 -10 -8 -16 -5 -26 17 -7 15 -13 30 -12 34 1 5
-2 8 -8 8 -5 0 -10 7 -10 15 0 8 -4 15 -10 15 -5 0 -10 9 -10 20 0 11 -4 20
-10 20 -5 0 -10 6 -10 13 0 6 -15 31 -33 54 -17 23 -43 57 -57 76 -20 29 -27
32 -38 21 -10 -10 -19 -11 -33 -4 -10 6 -19 8 -19 5 0 -4 -15 3 -33 14 -19 11
-37 18 -40 14 -4 -3 -21 9 -38 28 -30 32 -31 32 -25 9 6 -19 5 -21 -3 -10 -6
8 -11 11 -11 6 0 -4 -11 -1 -25 8 -35 23 -52 20 -70 -14 -14 -27 -14 -32 0
-53 13 -21 13 -24 0 -24 -8 0 -15 4 -15 8 0 4 -14 3 -31 -3 -27 -9 -28 -12
-16 -27 29 -33 107 -150 107 -160 0 -6 3 -11 8 -11 4 0 12 -10 18 -23 6 -12
31 -62 56 -112 75 -150 103 -210 100 -217 -1 -5 3 -8 10 -8 6 0 8 -3 5 -7 -4
-3 -2 -12 4 -20 6 -7 8 -13 4 -13 -4 0 -2 -6 4 -13 6 -8 12 -23 14 -35 2 -12
6 -25 10 -28 4 -4 7 -20 7 -35 0 -55 59 -120 103 -113 9 1 17 -2 17 -7 0 -5 9
-9 19 -9 11 0 21 -4 23 -10 2 -5 15 -11 31 -12 17 -1 26 -7 23 -14 -3 -7 2
-15 10 -18 8 -3 13 -2 11 2 -3 4 1 12 7 18 10 9 18 5 35 -17 25 -31 41 -37 41
-16 0 7 14 30 31 51 24 28 34 34 40 24 10 -14 11 -5 13 98 1 38 7 69 16 80 13
16 13 17 0 9 -13 -8 -13 -6 -1 8 7 9 18 14 24 10 5 -3 7 -1 3 5 -3 6 -1 16 6
24 7 7 14 20 16 28 2 8 9 18 15 22 7 4 8 8 4 8 -8 0 7 21 35 47 9 9 14 23 10
31 -3 10 -1 13 6 8 11 -6 17 5 13 27 0 4 5 6 11 5 7 -2 12 3 10 10 -1 6 3 12
9 12 6 0 9 7 5 15 -3 8 -2 14 2 12 4 -1 8 3 10 8 2 6 11 19 20 29 13 15 13 17
2 11 -13 -8 -13 -6 -1 8 7 9 17 14 22 11 5 -3 6 2 3 10 -4 9 1 18 10 22 9 3
13 10 10 15 -3 5 0 9 5 9 6 0 11 5 11 10 0 12 41 73 53 78 4 2 7 12 7 23 0 11
7 22 15 25 8 4 15 11 15 16 0 6 8 17 18 25 11 10 12 12 2 8 -8 -4 -5 2 7 13
12 11 20 21 18 24 -3 2 8 18 24 35 16 18 26 34 23 37 -3 3 0 6 7 6 7 0 9 5 6
10 -3 6 1 10 10 10 9 0 13 5 10 10 -3 5 -1 10 4 10 6 0 11 6 11 14 0 8 7 17
16 20 8 3 13 10 10 14 -3 5 3 16 12 25 25 23 44 47 37 47 -3 0 4 10 16 23 12
12 30 36 40 52 10 17 19 26 19 20 0 -5 12 9 26 33 14 23 29 42 34 42 5 0 12 9
15 21 4 11 10 18 13 14 3 -3 11 3 16 13 13 23 78 100 156 186 89 96 360 370
360 362 0 -4 14 7 30 24 17 17 30 28 30 24 0 -4 8 2 18 13 9 11 43 32 74 47
39 19 61 37 70 57 7 16 19 29 25 29 7 0 13 5 13 10 0 6 7 10 16 10 8 0 13 4
10 9 -3 5 -1 23 5 40 9 24 8 34 -4 46 -13 13 -17 13 -27 0 -7 -8 -16 -12 -21
-9 -5 3 -19 7 -31 9 -13 3 -28 12 -34 20 -9 13 -13 13 -17 3 -4 -11 -6 -11 -6
0 -1 7 -6 10 -11 7 -6 -3 -13 0 -15 7 -3 8 -18 13 -35 12 -17 -1 -27 2 -24 7
3 5 9 7 14 4 5 -3 12 0 16 6 4 7 3 9 -2 6 -6 -3 -16 -2 -24 3 -8 5 -19 5 -26
-1 -8 -6 -14 -5 -18 6 -6 17 -26 21 -26 5z"/>
</g>
</svg>
